<?xml version="1.0" encoding="utf-8"?>
<!-- Generator: Adobe Illustrator 27.5.0, SVG Export Plug-In . SVG Version: 6.00 Build 0)  -->
<svg version="1.1" xmlns="http://www.w3.org/2000/svg" xmlns:xlink="http://www.w3.org/1999/xlink" x="0px" y="0px"
	 viewBox="0 0 500 500" style="enable-background:new 0 0 500 500;" xml:space="preserve">
<g id="Floor">
	<ellipse id="Floor_9_" style="fill:#F5F5F5;" cx="251.124" cy="335.563" rx="238.528" ry="140.13"/>
</g>
<g id="Shadows">
	<path id="Shadow_26_" style="fill:#E0E0E0;" d="M33.713,371.606l144.689,83.536c3.293,1.901,8.632,1.901,11.925,0l272.468-157.309
		c3.293-1.901,3.293-4.984,0-6.885l-144.687-83.537c-3.293-1.901-8.632-1.901-11.925,0L33.713,364.721
		C30.42,366.623,30.42,369.705,33.713,371.606z"/>
	<ellipse id="Shadow_2_" style="opacity:0.1;" cx="292" cy="246.5" rx="29" ry="16.743"/>
</g>
<g id="Device">
	<g id="Mobile_2_">
		<g id="Device_2_">
			<path id="XMLID_727_" style="fill:#263238;" d="M43.376,342.786c-2.029,1.572-1.809,3.803,0.653,5.215l134.718,77.79
				c2.706,1.552,7.097,1.553,9.8-0.007l257.466-148.648c2.492-1.439,2.695-3.706,0.576-5.271c2.434,1.724,4.323,5.202,4.325,8.108
				l0.008,6.476c0.009,3.124-2.185,6.927-4.899,8.494L188.566,443.585c-2.714,1.567-7.105,1.566-9.806-0.004L44.037,365.808
				c-2.706-1.552-4.902-5.357-4.9-8.487l-0.014-6.487C39.129,347.967,40.972,344.53,43.376,342.786z"/>
			<path id="XMLID_724_" style="fill:#455A64;" d="M44.029,348.001l134.718,77.79c2.706,1.552,7.097,1.553,9.8-0.007
				l257.466-148.648c2.703-1.56,2.706-4.098,0.001-5.65l-134.719-77.79c-2.705-1.553-7.096-1.554-9.799,0.007L44.029,342.35
				C41.326,343.911,41.323,346.449,44.029,348.001z M280.776,213.807c2.314-1.336,4.726-0.563,7.046,0.782l122.497,70.726
				c2.313,1.335,2.323,3.509-0.002,4.851L209.859,405.901c-2.325,1.342-6.083,1.332-8.407,0.004L78.966,335.172
				c-2.331-1.339-2.323-3.509-0.009-4.845L280.776,213.807z"/>
			<path id="XMLID_1162_" style="fill:#37474F;" d="M446.588,271.865c2.434,1.724,4.323,5.202,4.325,8.108l0.008,6.476
				c-0.002,3.131-2.185,6.927-4.899,8.494L188.566,443.585c-1.357,0.784-3.135,1.172-4.913,1.175l-0.009-17.807
				c1.778-0.003,3.556-0.392,4.902-1.169l257.466-148.648C448.504,275.697,448.708,273.43,446.588,271.865z"/>
			<path id="XMLID_1105_" d="M365.732,240.229c-1.814-1.048-1.814-2.745,0-3.793c1.814-1.047,4.755-1.047,6.569,0
				c1.814,1.047,1.814,2.745,0,3.793C370.487,241.276,367.546,241.276,365.732,240.229z"/>
			<path id="XMLID_1104_" style="fill:none;stroke:#E6E6E6;stroke-width:1.285;stroke-miterlimit:10;" d="M116.383,382.48
				c-4.272-2.466-4.272-6.465,0-8.931c4.272-2.466,11.198-2.466,15.469,0c4.272,2.466,4.272,6.465,0,8.931
				C127.58,384.947,120.654,384.947,116.383,382.48z"/>
			<path id="XMLID_1093_" d="M368.975,252.811l-25.359-14.641c-1.513-0.873-1.589-2.246-0.17-3.065
				c1.419-0.82,3.796-0.776,5.31,0.098l25.36,14.642c1.513,0.873,1.589,2.245,0.169,3.065
				C372.865,253.729,370.488,253.685,368.975,252.811z"/>
			<path id="XMLID_1092_" style="fill:#27DEBF;" d="M280.776,213.807c2.314-1.336,4.726-0.563,7.046,0.782l122.497,70.726
				c2.313,1.335,2.323,3.509-0.002,4.851L209.859,405.901c-2.325,1.342-6.083,1.332-8.407,0.004L78.966,335.172
				c-2.331-1.339-2.323-3.509-0.009-4.845L280.776,213.807z"/>
		</g>
	</g>
</g>
<g id="Plants_1_">
	<g id="Tree">
		<g id="XMLID_3087_">
			
				<rect id="XMLID_3088_" x="282.901" y="138.28" transform="matrix(0.8917 -0.4526 0.4526 0.8917 -39.6863 145.5603)" style="fill:#37474F;" width="2.85" height="34.861"/>
		</g>
		<g id="XMLID_3064_">
			
				<rect id="XMLID_3085_" x="285.892" y="148.788" transform="matrix(0.5263 -0.8503 0.8503 0.5263 14.6221 326.6732)" style="fill:#37474F;" width="29.235" height="2.85"/>
		</g>
		<path id="XMLID_2877_" style="fill:#37474F;" d="M289.833,134.077v112.506c0,0.352,0.233,0.705,0.699,0.974
			c0.931,0.538,2.441,0.538,3.373,0c0.466-0.269,0.698-0.621,0.698-0.974V134.077H289.833z"/>
		
			<ellipse id="XMLID_723_" transform="matrix(0.1222 -0.9925 0.9925 0.1222 111.4328 362.3565)" style="fill:#27DEBF;" cx="260.567" cy="118.182" rx="27.371" ry="27.371"/>
		<path id="XMLID_722_" style="opacity:0.15;" d="M251.597,121.378c-7.858-13.445-5.588-24.394-4.515-27.015
			c1.733-4.235,8.58-3.552,13.484-3.552c15.117,0,27.371,12.254,27.371,27.371s-12.254,27.371-27.371,27.371
			c-8.499,0-16.094-3.874-21.115-9.953C247.562,137.968,259.23,134.438,251.597,121.378z"/>
		
			<ellipse id="XMLID_2844_" transform="matrix(0.9239 -0.3827 0.3827 0.9239 -21.5837 132.7094)" style="fill:#27DEBF;" cx="322.796" cy="120.609" rx="24.453" ry="24.452"/>
		<path id="XMLID_2843_" style="opacity:0.15;" d="M322.796,96.157c5.336,0,10.27,1.715,14.29,4.616
			c0.663,14.935-12.019,29.502-8.474,34.398c3.572,4.934,12.277,1.888,15.319-2.269c-4.238,7.27-12.113,12.16-21.135,12.16
			c-13.505,0-24.453-10.948-24.453-24.452C298.344,107.104,309.291,96.157,322.796,96.157z"/>
		<g id="XMLID_2841_">
			<circle id="XMLID_2842_" style="fill:#27DEBF;" cx="292.217" cy="94.244" r="44.858"/>
		</g>
		<path id="XMLID_3093_" style="opacity:0.1;" d="M324.796,63.427c0.763,3.287,1.185,6.712,1.185,10.238
			c0,24.775-12.393,51.26-45.503,51.26c-12.832,0-27.991-8.318-31.923-20.431c1.013,4.337,2.654,8.432,4.823,12.183
			c0.002,0.003,0.003,0.006,0.005,0.009c0.304,0.526,0.62,1.046,0.945,1.558c0.013,0.021,0.027,0.041,0.04,0.062
			c1.605,2.523,3.459,4.872,5.521,7.018c0.08,0.083,0.158,0.168,0.239,0.251c0.336,0.344,0.68,0.681,1.027,1.014
			c0.131,0.126,0.262,0.252,0.395,0.377c0.33,0.31,0.666,0.615,1.005,0.915c0.156,0.137,0.313,0.272,0.47,0.407
			c0.335,0.288,0.673,0.574,1.017,0.852c0.162,0.131,0.329,0.258,0.493,0.387c0.352,0.277,0.703,0.553,1.064,0.819
			c0.1,0.074,0.203,0.143,0.303,0.215c0.736,0.535,1.49,1.045,2.259,1.535c0.195,0.124,0.387,0.253,0.584,0.374
			c0.319,0.197,0.646,0.383,0.97,0.572c0.259,0.15,0.517,0.303,0.779,0.448c0.314,0.174,0.632,0.341,0.95,0.508
			c0.282,0.148,0.566,0.294,0.851,0.436c0.313,0.155,0.628,0.307,0.945,0.456c0.302,0.141,0.608,0.278,0.914,0.413
			c0.31,0.137,0.621,0.274,0.935,0.404c0.329,0.136,0.662,0.264,0.995,0.392c0.299,0.116,0.597,0.235,0.9,0.344
			c0.433,0.156,0.872,0.3,1.311,0.443c0.387,0.127,0.777,0.248,1.169,0.364c0.449,0.133,0.898,0.265,1.352,0.384
			c0.293,0.077,0.59,0.143,0.885,0.214c0.378,0.091,0.757,0.182,1.139,0.263c0.313,0.066,0.628,0.126,0.942,0.186
			c0.373,0.071,0.746,0.139,1.122,0.2c0.32,0.053,0.641,0.102,0.963,0.147c0.38,0.054,0.763,0.101,1.146,0.146
			c0.32,0.037,0.639,0.074,0.961,0.105c0.405,0.038,0.812,0.065,1.219,0.093c0.303,0.02,0.605,0.045,0.91,0.059
			c0.533,0.025,1.069,0.035,1.607,0.041c0.169,0.002,0.337,0.011,0.507,0.011c8.516,0,16.479-2.373,23.261-6.493
			c12.948-7.868,21.597-22.105,21.597-38.363C337.075,82.305,332.402,71.464,324.796,63.427z"/>
	</g>
</g>
<g id="WiFi_1_">
	<g id="WiFi">
		<g id="XMLID_2891_">
			<path id="XMLID_2892_" style="fill:#27DEBF;" d="M157.877,125.671c-1.154-0.832-2.623-0.985-4.254-0.278
				c-4.025,1.743-7.501,8.037-7.765,14.057c-0.157,3.58,0.859,6.251,2.554,7.464c0.739,0.529,3.636,2.624,4.397,3.165
				c1.15,0.818,2.611,0.964,4.232,0.262c4.024-1.743,7.501-8.037,7.765-14.057c0.156-3.555-0.845-6.214-2.519-7.438
				C161.541,128.3,158.629,126.214,157.877,125.671z"/>
			<path id="XMLID_759_" style="opacity:0.3;" d="M157.877,125.671c-1.154-0.832-2.623-0.985-4.254-0.278
				c-4.025,1.743-7.501,8.037-7.765,14.057c-0.157,3.58,0.859,6.251,2.554,7.464c0.739,0.529,3.636,2.624,4.397,3.165
				c1.15,0.818,2.611,0.964,4.232,0.262c4.024-1.743,7.501-8.037,7.765-14.057c0.156-3.555-0.845-6.214-2.519-7.438
				C161.541,128.3,158.629,126.214,157.877,125.671z"/>
			<path id="XMLID_2906_" style="fill:#27DEBF;" d="M163.275,109.819c-3.039-2.174-6.905-2.572-11.196-0.714
				c-7.341,3.179-13.991,12.102-17.617,22.546c-0.736,2.118-0.503,4.26,0.537,5.067l0.011,0.009c1.222,0.948,3.324,2.33,4.363,3.136
				l0.012,0.009c1.311,1.017,3.379-0.464,4.296-3.138c2.541-7.397,7.236-13.692,12.397-15.927c1.985-0.859,3.841-1.03,5.489-0.613
				c0.627,0.874,1.166,1.894,1.59,3.066c0.174,0.48,0.424,0.825,0.725,1.041c0.664,0.477,4.081,2.941,4.388,3.159
				c0.939,0.666,2.359,0.09,3.456-1.59l0.014-0.02c1.145-1.755,1.574-4.177,1.002-5.724c-1.163-3.144-2.882-5.567-5.011-7.113
				C166.982,112.47,164.015,110.349,163.275,109.819z"/>
			<path id="XMLID_757_" style="opacity:0.3;" d="M163.275,109.819c-3.039-2.174-6.905-2.572-11.196-0.714
				c-7.341,3.179-13.991,12.102-17.617,22.546c-0.736,2.118-0.503,4.26,0.537,5.067l0.011,0.009c1.222,0.948,3.324,2.33,4.363,3.136
				l0.012,0.009c1.311,1.017,3.379-0.464,4.296-3.138c2.541-7.397,7.236-13.692,12.397-15.927c1.985-0.859,3.841-1.03,5.489-0.613
				c0.627,0.874,1.166,1.894,1.59,3.066c0.174,0.48,0.424,0.825,0.725,1.041c0.664,0.477,4.081,2.941,4.388,3.159
				c0.939,0.666,2.359,0.09,3.456-1.59l0.014-0.02c1.145-1.755,1.574-4.177,1.002-5.724c-1.163-3.144-2.882-5.567-5.011-7.113
				C166.982,112.47,164.015,110.349,163.275,109.819z"/>
			<path id="XMLID_2908_" style="fill:#27DEBF;" d="M180.26,103.773c-1.792-3.84-4.175-6.851-7.007-8.904
				c-0.753-0.546-3.724-2.676-4.456-3.203c-4.887-3.518-13.051-4.438-19.947-1.451c-12.195,5.281-20.142,12.953-27.488,31.405
				c-0.892,2.241-0.551,4.529,0.566,5.409l0.916,0.705c1.267,0.998,3.236,2.249,4.353,3.129l0.022,0.016
				c1.267,0.998,3.22-0.375,4.226-2.921c4.916-12.453,14.428-21.918,23.348-25.782c4.605-1.994,8.842-1.991,12.419-0.351
				c1.433,1.494,2.676,3.346,3.688,5.522c0.179,0.385,0.41,0.67,0.677,0.859c0.638,0.452,4.102,2.95,4.365,3.14
				c0.951,0.685,2.357,0.137,3.458-1.549C180.638,107.901,180.98,105.317,180.26,103.773z"/>
			<path id="XMLID_760_" style="opacity:0.3;" d="M180.26,103.773c-1.792-3.84-4.175-6.851-7.007-8.904
				c-0.753-0.546-3.724-2.676-4.456-3.203c-4.887-3.518-13.051-4.438-19.947-1.451c-12.195,5.281-20.142,12.953-27.488,31.405
				c-0.892,2.241-0.551,4.529,0.566,5.409l0.916,0.705c1.267,0.998,3.236,2.249,4.353,3.129l0.022,0.016
				c1.267,0.998,3.22-0.375,4.226-2.921c4.916-12.453,14.428-21.918,23.348-25.782c4.605-1.994,8.842-1.991,12.419-0.351
				c1.433,1.494,2.676,3.346,3.688,5.522c0.179,0.385,0.41,0.67,0.677,0.859c0.638,0.452,4.102,2.95,4.365,3.14
				c0.951,0.685,2.357,0.137,3.458-1.549C180.638,107.901,180.98,105.317,180.26,103.773z"/>
		</g>
		<g id="XMLID_15138_">
			<g id="XMLID_15147_">
				<path id="XMLID_15148_" style="fill:#27DEBF;" d="M164.806,136.285c-0.264,6.02-3.741,12.314-7.765,14.057
					c-4.025,1.742-7.073-1.725-6.809-7.746c0.264-6.02,3.74-12.314,7.765-14.057C162.021,126.796,165.07,130.264,164.806,136.285z"
					/>
			</g>
			<g id="XMLID_15143_">
				<g id="XMLID_15144_">
					<path id="XMLID_15145_" style="fill:#27DEBF;" d="M156.453,112.251c-7.34,3.179-13.991,12.102-17.617,22.546
						c-0.736,2.118-0.503,4.26,0.536,5.067l0.012,0.009c1.311,1.017,3.378-0.464,4.296-3.138
						c2.541-7.397,7.236-13.692,12.397-15.927c5.174-2.24,9.485,0.163,11.453,5.597c0.716,1.979,2.739,1.694,4.194-0.536l0.014-0.02
						c1.145-1.755,1.574-4.176,1.002-5.724C169.909,112.472,163.797,109.07,156.453,112.251z"/>
				</g>
			</g>
			<g id="XMLID_15139_">
				<g id="XMLID_15140_">
					<path id="XMLID_15141_" style="fill:#27DEBF;" d="M154.168,93.62c-8.021,3.205-13.483,7.247-18.147,13.097
						c-3.653,4.582-6.939,10.197-9.761,17.899c-0.83,2.265-1.273,4.664,0.937,6.246l0.022,0.016c1.267,0.998,3.22-0.375,4.226-2.921
						c4.917-12.453,14.428-21.918,23.349-25.782c8.923-3.864,16.483-0.279,20.482,8.316c0.816,1.755,2.72,1.458,4.126-0.695l0,0
						c1.237-1.895,1.58-4.48,0.86-6.023C175.364,93.284,164.547,89.473,154.168,93.62z"/>
				</g>
			</g>
		</g>
	</g>
</g>
<g id="Social_Media">
	<g id="Social_Icons">
		<g id="XMLID_813_">
			<path id="XMLID_818_" style="fill:#27DEBF;" d="M422.296,67.862l-20.551-11.865c-1.762-1.017-4.618-1.017-6.379,0l-2.597,1.499
				c-1.762,1.017-3.19,3.491-3.19,5.525l0,23.73c0,2.034,1.428,4.508,3.19,5.525l20.551,11.865c1.762,1.017,4.618,1.017,6.38,0
				l2.597-1.499c1.761-1.017,3.19-3.49,3.19-5.525v-23.73C425.486,71.352,424.058,68.879,422.296,67.862z"/>
			<path id="XMLID_819_" style="opacity:0.8;fill:#FFFFFF;" d="M422.296,67.862l-20.551-11.865c-1.762-1.017-4.618-1.017-6.379,0
				l-2.597,1.499c-1.762,1.017-3.19,3.491-3.19,5.525l0,23.73c0,2.034,1.428,4.508,3.19,5.525l20.551,11.865
				c1.762,1.017,4.618,1.017,6.38,0l2.597-1.499c1.761-1.017,3.19-3.49,3.19-5.525v-23.73
				C425.486,71.352,424.058,68.879,422.296,67.862z"/>
			<path style="fill:#27DEBF;" d="M413.32,73.045L392.769,61.18c-1.762-1.017-3.19-0.192-3.19,1.842l0,23.73
				c0,2.034,1.428,4.508,3.189,5.525l20.551,11.865c1.762,1.017,3.19,0.193,3.19-1.842l0-23.73
				C416.509,76.535,415.081,74.062,413.32,73.045z"/>
			<path style="opacity:0.7;fill:#FFFFFF;" d="M413.32,73.045L392.769,61.18c-1.762-1.017-3.19-0.192-3.19,1.842l0,23.73
				c0,2.034,1.428,4.508,3.189,5.525l20.551,11.865c1.762,1.017,3.19,0.193,3.19-1.842l0-23.73
				C416.509,76.535,415.081,74.062,413.32,73.045z"/>
			<path id="XMLID_816_" style="fill:#27DEBF;" d="M425.486,97.117c0,2.034-1.428,4.508-3.19,5.525l-2.597,1.499
				c-1.592,0.919-4.07,0.999-5.835,0.257c1.501,0.568,2.645-0.279,2.645-2.099l0-23.73c0-1.017-0.357-2.144-0.934-3.144l8.977-5.183
				c0.577,1,0.934,2.127,0.934,3.144V97.117z"/>
			<path id="XMLID_822_" style="opacity:0.55;fill:#FFFFFF;" d="M425.486,97.117c0,2.034-1.428,4.508-3.19,5.525l-2.597,1.499
				c-1.592,0.919-4.07,0.999-5.835,0.257c1.501,0.568,2.645-0.279,2.645-2.099l0-23.73c0-1.017-0.357-2.144-0.934-3.144l8.977-5.183
				c0.577,1,0.934,2.127,0.934,3.144V97.117z"/>
			<g id="XMLID_814_">
				<path id="XMLID_815_" style="fill:#FFFFFF;" d="M407.533,89.334c1.437-1.654,2.157-4.358,2.058-7.377
					c0.66-0.253,1.233-0.716,1.686-1.359c-0.606,0.008-1.257-0.125-1.94-0.41c0.697-0.154,1.233-0.728,1.485-1.635
					c-0.653,0.14-1.376,0.097-2.144-0.144c-0.616-1.231-1.494-2.285-2.466-2.846c-2.18-1.258-3.782,0.529-3.29,3.631
					c-2.807-1.808-5.297-5.039-6.962-8.726c-0.885,1.514-0.459,4.408,1.045,6.617c-0.554-0.343-1.075-0.847-1.531-1.448
					c-0.036,2.066,1.085,4.665,2.71,6.038c-0.475-0.102-0.996-0.364-1.525-0.804c0.429,2.038,1.677,4.059,3.155,4.95
					c-1.42,0.664-3.209,0.294-5.001-1.023c1.495,2.141,3.271,3.912,5.178,5.013C403.33,91.741,405.896,91.219,407.533,89.334"/>
			</g>
		</g>
		<g id="XMLID_761_">
			<path id="XMLID_771_" style="fill:#27DEBF;" d="M422.296,121.66l-20.551-11.865c-1.762-1.017-4.618-1.017-6.379,0l-2.597,1.499
				c-1.762,1.017-3.19,3.491-3.19,5.525l0,23.73c0,2.034,1.428,4.508,3.19,5.525l20.551,11.865c1.761,1.017,4.618,1.017,6.379,0
				l2.597-1.499c1.762-1.017,3.19-3.49,3.19-5.525v-23.73C425.486,125.151,424.058,122.677,422.296,121.66z"/>
			<path id="XMLID_820_" style="opacity:0.8;fill:#FFFFFF;" d="M422.296,121.66l-20.551-11.865c-1.762-1.017-4.618-1.017-6.379,0
				l-2.597,1.499c-1.762,1.017-3.19,3.491-3.19,5.525l0,23.73c0,2.034,1.428,4.508,3.19,5.525l20.551,11.865
				c1.761,1.017,4.618,1.017,6.379,0l2.597-1.499c1.762-1.017,3.19-3.49,3.19-5.525v-23.73
				C425.486,125.151,424.058,122.677,422.296,121.66z"/>
			<path id="XMLID_769_" style="fill:#27DEBF;" d="M389.579,116.82c0-2.034,1.428-2.859,3.19-1.842l20.551,11.865
				c1.762,1.017,3.19,3.491,3.19,5.525v23.73c0,2.034-1.428,2.859-3.19,1.842l-20.551-11.865c-1.762-1.017-3.19-3.49-3.19-5.525
				L389.579,116.82z"/>
			<path id="XMLID_817_" style="opacity:0.7;fill:#FFFFFF;" d="M389.579,116.82c0-2.034,1.428-2.859,3.19-1.842l20.551,11.865
				c1.762,1.017,3.19,3.491,3.19,5.525v23.73c0,2.034-1.428,2.859-3.19,1.842l-20.551-11.865c-1.762-1.017-3.19-3.49-3.19-5.525
				L389.579,116.82z"/>
			<path id="XMLID_766_" style="fill:#27DEBF;" d="M425.486,150.915c0,2.034-1.428,4.508-3.19,5.525l-2.597,1.499
				c-1.592,0.919-4.07,0.999-5.834,0.257c1.502,0.568,2.645-0.279,2.645-2.099v-23.73c0-1.017-0.357-2.144-0.934-3.144l8.977-5.183
				c0.577,1,0.935,2.127,0.935,3.144L425.486,150.915z"/>
			<path id="XMLID_823_" style="opacity:0.55;fill:#FFFFFF;" d="M425.486,150.915c0,2.034-1.428,4.508-3.19,5.525l-2.597,1.499
				c-1.592,0.919-4.07,0.999-5.834,0.257c1.502,0.568,2.645-0.279,2.645-2.099v-23.73c0-1.017-0.357-2.144-0.934-3.144l8.977-5.183
				c0.577,1,0.935,2.127,0.935,3.144L425.486,150.915z"/>
			<g id="XMLID_763_">
				<path id="XMLID_764_" style="fill:#FFFFFF;" d="M400.898,146.108l3.428,1.979v-11.447l2.392,1.381l0.255-3.685l-2.647-1.528
					c0,0,0-1.431,0-2.183c0-0.904,0.136-1.182,0.791-0.804c0.527,0.304,1.856,1.072,1.856,1.072v-3.978c0,0-1.956-1.13-2.374-1.371
					c-2.551-1.473-3.701-0.639-3.701,2.229c0,2.498,0,3.055,0,3.055l-1.783-1.029v3.881l1.783,1.03V146.108z"/>
			</g>
		</g>
		<g id="XMLID_772_">
			<path id="XMLID_812_" style="fill:#27DEBF;" d="M422.296,175.459l-20.551-11.865c-1.762-1.017-4.618-1.017-6.379,0l-2.597,1.5
				c-1.762,1.017-3.19,3.491-3.19,5.525l0,23.73c0,2.034,1.428,4.508,3.19,5.525l20.551,11.865c1.762,1.016,4.618,1.016,6.38,0
				l2.597-1.5c1.761-1.017,3.19-3.49,3.19-5.525v-23.73C425.486,178.949,424.058,176.476,422.296,175.459z"/>
			<path id="XMLID_821_" style="opacity:0.8;fill:#FFFFFF;" d="M422.296,175.459l-20.551-11.865c-1.762-1.017-4.618-1.017-6.379,0
				l-2.597,1.5c-1.762,1.017-3.19,3.491-3.19,5.525l0,23.73c0,2.034,1.428,4.508,3.19,5.525l20.551,11.865
				c1.762,1.016,4.618,1.016,6.38,0l2.597-1.5c1.761-1.017,3.19-3.49,3.19-5.525v-23.73
				C425.486,178.949,424.058,176.476,422.296,175.459z"/>
			<path id="XMLID_811_" style="fill:#27DEBF;" d="M389.579,170.618c0-2.034,1.428-2.859,3.19-1.842l20.551,11.865
				c1.762,1.017,3.19,3.491,3.19,5.525l0,23.73c0,2.034-1.428,2.858-3.19,1.842l-20.551-11.865c-1.762-1.017-3.19-3.49-3.19-5.525
				L389.579,170.618z"/>
			<path id="XMLID_826_" style="opacity:0.7;fill:#FFFFFF;" d="M389.579,170.618c0-2.034,1.428-2.859,3.19-1.842l20.551,11.865
				c1.762,1.017,3.19,3.491,3.19,5.525l0,23.73c0,2.034-1.428,2.858-3.19,1.842l-20.551-11.865c-1.762-1.017-3.19-3.49-3.19-5.525
				L389.579,170.618z"/>
			<path id="XMLID_810_" style="fill:#27DEBF;" d="M425.486,204.713c0,2.034-1.428,4.508-3.19,5.525l-2.597,1.5
				c-1.592,0.919-4.07,0.999-5.835,0.257c1.501,0.568,2.645-0.28,2.645-2.098l0-23.73c0-1.017-0.357-2.144-0.934-3.144l8.977-5.183
				c0.577,1,0.934,2.126,0.934,3.144V204.713z"/>
			<path id="XMLID_824_" style="opacity:0.55;fill:#FFFFFF;" d="M425.486,204.713c0,2.034-1.428,4.508-3.19,5.525l-2.597,1.5
				c-1.592,0.919-4.07,0.999-5.835,0.257c1.501,0.568,2.645-0.28,2.645-2.098l0-23.73c0-1.017-0.357-2.144-0.934-3.144l8.977-5.183
				c0.577,1,0.934,2.126,0.934,3.144V204.713z"/>
			<g id="XMLID_775_">
				<path id="XMLID_807_" style="fill:#FFFFFF;" d="M403.044,181.647c2.103,1.214,2.352,1.369,3.182,1.899
					c0.768,0.49,1.185,0.902,1.462,1.206c0.368,0.403,0.63,0.782,0.906,1.309c0.276,0.527,0.446,0.975,0.589,1.547
					c0.108,0.433,0.236,1.063,0.272,2.107c0.038,1.129,0.046,1.466,0.046,4.27c0,2.804-0.008,3.132-0.046,4.217
					c-0.035,1.004-0.164,1.486-0.272,1.793c-0.143,0.408-0.314,0.659-0.589,0.867c-0.275,0.209-0.538,0.285-0.906,0.263
					c-0.277-0.017-0.694-0.086-1.462-0.483c-0.831-0.43-1.079-0.563-3.182-1.777c-2.103-1.214-2.352-1.368-3.183-1.898
					c-0.768-0.49-1.185-0.902-1.462-1.206c-0.368-0.403-0.63-0.782-0.905-1.309c-0.276-0.527-0.446-0.975-0.589-1.548
					c-0.108-0.432-0.236-1.062-0.271-2.106c-0.038-1.129-0.046-1.466-0.046-4.27c0-2.804,0.008-3.131,0.046-4.217
					c0.035-1.004,0.164-1.486,0.271-1.794c0.143-0.408,0.313-0.659,0.589-0.867c0.276-0.208,0.538-0.284,0.905-0.263
					c0.278,0.017,0.695,0.086,1.462,0.483C400.692,180.3,400.941,180.433,403.044,181.647 M403.044,179.755
					c-2.139-1.235-2.407-1.378-3.247-1.812c-0.838-0.433-1.411-0.586-1.912-0.616c-0.518-0.031-0.957,0.075-1.395,0.406
					c-0.438,0.331-0.707,0.761-0.909,1.336c-0.195,0.556-0.328,1.242-0.366,2.338c-0.038,1.098-0.047,1.451-0.047,4.303
					c0,2.852,0.009,3.215,0.047,4.357c0.038,1.14,0.171,1.98,0.366,2.761c0.201,0.806,0.471,1.548,0.909,2.384
					c0.438,0.837,0.877,1.449,1.395,2.017c0.501,0.548,1.074,1.057,1.912,1.592c0.84,0.536,1.108,0.703,3.247,1.938
					c2.139,1.234,2.407,1.378,3.247,1.811c0.838,0.433,1.411,0.586,1.912,0.616c0.518,0.031,0.957-0.075,1.395-0.406
					c0.438-0.331,0.707-0.762,0.909-1.336c0.195-0.555,0.328-1.242,0.366-2.338c0.038-1.098,0.047-1.45,0.047-4.302
					c0-2.852-0.009-3.215-0.047-4.357c-0.038-1.14-0.171-1.98-0.366-2.76c-0.201-0.807-0.47-1.548-0.909-2.385
					c-0.438-0.837-0.877-1.449-1.395-2.017c-0.501-0.548-1.074-1.057-1.912-1.592C405.452,181.158,405.183,180.99,403.044,179.755"
					/>
				<path id="XMLID_777_" style="fill:#FFFFFF;" d="M403.044,184.864c-2.234-1.29-4.045,0.079-4.045,3.058
					c0,2.978,1.811,6.438,4.045,7.728c2.234,1.29,4.044-0.079,4.044-3.058C407.088,189.614,405.278,186.154,403.044,184.864
					 M403.044,193.758c-1.45-0.838-2.625-3.083-2.625-5.016c0-1.934,1.175-2.822,2.625-1.985c1.45,0.837,2.625,3.083,2.625,5.017
					S404.494,194.595,403.044,193.758"/>
				<path id="XMLID_776_" style="fill:#FFFFFF;" d="M406.421,186.743c0,0.696,0.423,1.505,0.945,1.806
					c0.522,0.301,0.945-0.019,0.945-0.714c0-0.696-0.423-1.505-0.945-1.806C406.844,185.727,406.421,186.047,406.421,186.743"/>
			</g>
		</g>
	</g>
</g>
<g id="Character">
	<path id="Shadow_1_" style="opacity:0.1;" d="M285.534,281.371l-41.682-24.065c-1.373-0.793-3.6-0.793-4.973,0l-134.991,77.938
		c-1.373,0.793-1.373,2.078,0,2.871l41.681,24.065c1.373,0.793,3.6,0.793,4.973,0l14.409-8.319
		c0.811,6.132,5.265,12.134,13.388,16.824c18.047,10.419,47.308,10.419,65.355,0c18.047-10.42,18.047-27.313,0-37.733
		c-8.123-4.69-18.519-7.261-29.14-7.729l70.98-40.981C286.908,283.45,286.908,282.164,285.534,281.371z"/>
	<g id="Bench_1_">
		<g id="XMLID_713_">
			<path id="XMLID_3039_" style="fill:#27DEBF;" d="M207.639,283.916c-0.485,0-0.976-0.124-1.426-0.384l-30.802-17.785
				c-3.367-1.943-5.459-5.566-5.459-9.455v-35.569c0-1.579,1.279-2.858,2.858-2.858c1.579,0,2.858,1.279,2.858,2.858v35.569
				c0,1.853,0.997,3.578,2.601,4.504l30.803,17.786c1.367,0.789,1.836,2.537,1.046,3.904
				C209.587,283.403,208.627,283.916,207.639,283.916z"/>
			<path id="XMLID_721_" style="fill:#27DEBF;" d="M144.757,319.416c-0.485,0-0.976-0.124-1.426-0.384l-30.803-17.785
				c-3.367-1.943-5.459-5.566-5.459-9.455v-35.57c0-1.579,1.28-2.858,2.858-2.858c1.579,0,2.859,1.279,2.859,2.858v35.57
				c0,1.853,0.996,3.578,2.601,4.503l30.802,17.786c1.367,0.789,1.836,2.537,1.046,3.904
				C146.706,318.904,145.745,319.416,144.757,319.416z"/>
			<path id="XMLID_719_" style="fill:#27DEBF;" d="M268.362,248.147c-0.485,0-0.976-0.124-1.426-0.384l-30.803-17.784
				c-3.368-1.946-5.458-5.568-5.458-9.455v-35.568c0-1.579,1.28-2.858,2.859-2.858c1.579,0,2.859,1.279,2.859,2.858v35.568
				c0,1.852,0.996,3.579,2.601,4.505l30.802,17.784c1.367,0.789,1.836,2.537,1.046,3.904
				C270.311,247.634,269.35,248.147,268.362,248.147z"/>
			<path id="XMLID_718_" style="fill:#27DEBF;" d="M150.089,315.872v40.704c0,0.48-0.317,0.959-0.951,1.326
				c-1.268,0.732-3.324,0.732-4.592,0c-0.634-0.366-0.951-0.846-0.951-1.326v-40.704H150.089z"/>
			<path id="XMLID_717_" style="fill:#27DEBF;" d="M122.92,300.396V341.1c0,0.48-0.317,0.96-0.951,1.326
				c-1.268,0.732-3.324,0.732-4.592,0c-0.634-0.366-0.951-0.846-0.951-1.326v-40.704H122.92z"/>
			<path id="XMLID_716_" style="fill:#27DEBF;" d="M273.587,244.568v40.704c0,0.48-0.317,0.959-0.951,1.326
				c-1.268,0.732-3.324,0.732-4.592,0c-0.634-0.366-0.951-0.846-0.951-1.326v-40.704H273.587z"/>
			<path id="XMLID_714_" style="fill:#27DEBF;" d="M246.418,229.092v40.704c0,0.48-0.317,0.96-0.951,1.325
				c-1.268,0.732-3.324,0.732-4.592,0c-0.634-0.366-0.951-0.846-0.951-1.325v-40.704H246.418z"/>
		</g>
		<g id="XMLID_712_" style="opacity:0.65;">
			<path id="XMLID_2595_" d="M207.639,283.916c-0.485,0-0.976-0.124-1.426-0.384l-30.802-17.785
				c-3.367-1.943-5.459-5.566-5.459-9.455v-35.569c0-1.579,1.279-2.858,2.858-2.858c1.579,0,2.858,1.279,2.858,2.858v35.569
				c0,1.853,0.997,3.578,2.601,4.504l30.803,17.786c1.367,0.789,1.836,2.537,1.046,3.904
				C209.587,283.403,208.627,283.916,207.639,283.916z"/>
			<path id="XMLID_2563_" d="M144.757,319.416c-0.485,0-0.976-0.124-1.426-0.384l-30.803-17.785
				c-3.367-1.943-5.459-5.566-5.459-9.455v-35.57c0-1.579,1.28-2.858,2.858-2.858c1.579,0,2.859,1.279,2.859,2.858v35.57
				c0,1.853,0.996,3.578,2.601,4.503l30.802,17.786c1.367,0.789,1.836,2.537,1.046,3.904
				C146.706,318.904,145.745,319.416,144.757,319.416z"/>
			<path id="XMLID_2561_" d="M268.362,248.147c-0.485,0-0.976-0.124-1.426-0.384l-30.803-17.784
				c-3.368-1.946-5.458-5.568-5.458-9.455v-35.568c0-1.579,1.28-2.858,2.859-2.858c1.579,0,2.859,1.279,2.859,2.858v35.568
				c0,1.852,0.996,3.579,2.601,4.505l30.802,17.784c1.367,0.789,1.836,2.537,1.046,3.904
				C270.311,247.634,269.35,248.147,268.362,248.147z"/>
			<path id="XMLID_2559_" d="M150.089,315.872v40.704c0,0.48-0.317,0.959-0.951,1.326c-1.268,0.732-3.324,0.732-4.592,0
				c-0.634-0.366-0.951-0.846-0.951-1.326v-40.704H150.089z"/>
			<path id="XMLID_2558_" d="M122.92,300.396V341.1c0,0.48-0.317,0.96-0.951,1.326c-1.268,0.732-3.324,0.732-4.592,0
				c-0.634-0.366-0.951-0.846-0.951-1.326v-40.704H122.92z"/>
			<path id="XMLID_1799_" d="M273.587,244.568v40.704c0,0.48-0.317,0.959-0.951,1.326c-1.268,0.732-3.324,0.732-4.592,0
				c-0.634-0.366-0.951-0.846-0.951-1.326v-40.704H273.587z"/>
			<path id="XMLID_960_" d="M246.418,229.092v40.704c0,0.48-0.317,0.96-0.951,1.325c-1.268,0.732-3.324,0.732-4.592,0
				c-0.634-0.366-0.951-0.846-0.951-1.325v-40.704H246.418z"/>
		</g>
		<g id="Chair_1_">
			<g id="XMLID_2608_">
				<g id="XMLID_1796_">
					<path id="XMLID_709_" style="fill:#27DEBF;" d="M100.701,264.293l-0.57-0.329c-0.911-0.526-1.65-1.806-1.65-2.858v-5.127
						c0-1.052,0.739-2.332,1.65-2.858L235.9,174.735c0.911-0.526,2.389-0.526,3.301,0l0.57,0.329c0.912,0.526,1.65,1.806,1.65,2.858
						v5.127c0,1.053-0.739,2.332-1.65,2.859l-135.768,78.386C103.09,264.819,101.613,264.819,100.701,264.293z"/>
					<path id="XMLID_3267_" style="opacity:0.5;" d="M239.77,176.969l-135.769,78.385c-0.911,0.526-1.65,1.806-1.65,2.859l0,5.127
						c0,1.052,0.739,1.479,1.65,0.953l135.768-78.386c0.912-0.526,1.65-1.806,1.65-2.858v-5.127
						C241.421,176.87,240.682,176.443,239.77,176.969z"/>
					<path id="XMLID_3135_" style="opacity:0.4;" d="M239.77,175.064l-0.57-0.329c-0.912-0.526-2.389-0.526-3.301,0L100.131,253.12
						c-0.455,0.263-0.868,0.714-1.166,1.231l3.869,2.232c0,0,0.437-0.8,1.168-1.229l135.769-78.385c0.912-0.526,1.65-0.1,1.65,0.953
						C241.421,176.87,240.682,175.59,239.77,175.064z"/>
					<path id="XMLID_3220_" style="opacity:0.6;" d="M102.348,258.217c0-0.527,0.187-1.11,0.486-1.63l-3.869-2.232
						c-0.124,0.214-0.222,0.441-0.302,0.669c-0.111,0.323-0.179,0.651-0.179,0.96v5.127c0,0.539,0.194,1.135,0.503,1.66
						c0.297,0.502,0.699,0.94,1.144,1.197l0.223,0.129l0.35,0.198c0.079,0.046,0.165,0.085,0.252,0.122
						c0.024,0.01,0.046,0.023,0.07,0.033c0.074,0.03,0.153,0.053,0.23,0.077c0.049,0.015,0.096,0.031,0.146,0.044
						c0.074,0.019,0.151,0.034,0.228,0.048c0.057,0.011,0.115,0.022,0.173,0.03c0.076,0.011,0.154,0.019,0.231,0.025
						c0.059,0.005,0.118,0.008,0.177,0.01c0.081,0.003,0.162,0.004,0.243,0.002c0.05-0.001,0.1-0.005,0.15-0.008
						c0.092-0.006,0.183-0.012,0.274-0.025c0.021-0.003,0.041-0.007,0.062-0.011c0.236-0.036,0.465-0.093,0.676-0.174
						c-0.081,0.024-0.159,0.037-0.235,0.045c-0.008,0.001-0.018,0.004-0.026,0.005c-0.092,0.008-0.179,0.002-0.261-0.013
						c-0.025-0.005-0.048-0.015-0.072-0.022c-0.057-0.016-0.112-0.034-0.163-0.061c-0.023-0.012-0.043-0.027-0.065-0.042
						c-0.049-0.032-0.094-0.069-0.136-0.112c-0.016-0.017-0.032-0.034-0.047-0.053c-0.043-0.052-0.08-0.111-0.113-0.175
						c-0.008-0.017-0.018-0.033-0.026-0.05c-0.037-0.082-0.066-0.172-0.087-0.272c-0.001-0.005-0.003-0.008-0.003-0.013
						c-0.022-0.111-0.037-0.23-0.037-0.361V258.217z"/>
				</g>
				<g id="XMLID_2512_">
					<path id="XMLID_708_" style="fill:#27DEBF;" d="M100.701,279.969l-0.57-0.329c-0.911-0.526-1.65-1.806-1.65-2.858v-5.127
						c0-1.052,0.739-2.332,1.65-2.858L235.9,190.411c0.911-0.526,2.389-0.526,3.301,0l0.57,0.329c0.912,0.526,1.65,1.806,1.65,2.858
						v5.127c0,1.052-0.739,2.332-1.65,2.858l-135.768,78.386C103.09,280.495,101.613,280.495,100.701,279.969z"/>
					<path id="XMLID_3222_" style="opacity:0.5;" d="M239.77,192.647l-135.769,78.385c-0.911,0.526-1.65,1.806-1.65,2.859l0,5.127
						c0,1.052,0.739,1.479,1.65,0.953l135.768-78.386c0.912-0.526,1.65-1.806,1.65-2.859V193.6
						C241.421,192.548,240.682,192.121,239.77,192.647z"/>
					<path id="XMLID_3218_" style="opacity:0.4;" d="M239.77,190.742l-0.57-0.329c-0.912-0.526-2.389-0.526-3.301,0l-135.769,78.386
						c-0.455,0.263-0.868,0.714-1.166,1.231l3.869,2.232c0,0,0.437-0.801,1.168-1.229l135.769-78.385
						c0.912-0.526,1.65-0.1,1.65,0.953C241.421,192.548,240.682,191.268,239.77,190.742z"/>
					<path id="XMLID_2556_" style="opacity:0.6;" d="M102.348,273.892c0-0.527,0.187-1.11,0.486-1.63l-3.869-2.232
						c-0.124,0.214-0.222,0.441-0.302,0.669c-0.111,0.323-0.179,0.651-0.179,0.96v5.127c0,0.539,0.194,1.135,0.503,1.66
						c0.297,0.502,0.699,0.94,1.144,1.197l0.223,0.129l0.35,0.198c0.079,0.046,0.165,0.084,0.252,0.122
						c0.024,0.01,0.046,0.023,0.07,0.033c0.074,0.03,0.153,0.053,0.23,0.077c0.049,0.015,0.096,0.031,0.146,0.044
						c0.074,0.019,0.151,0.034,0.228,0.048c0.057,0.011,0.115,0.021,0.173,0.03c0.076,0.011,0.154,0.019,0.231,0.025
						c0.059,0.005,0.118,0.008,0.177,0.01c0.081,0.003,0.162,0.004,0.243,0.002c0.05-0.001,0.1-0.005,0.15-0.008
						c0.092-0.006,0.183-0.012,0.274-0.025c0.021-0.003,0.041-0.007,0.062-0.011c0.236-0.037,0.465-0.093,0.676-0.174
						c-0.081,0.024-0.159,0.037-0.235,0.045c-0.008,0.001-0.018,0.004-0.026,0.005c-0.092,0.008-0.179,0.002-0.261-0.013
						c-0.025-0.005-0.048-0.015-0.072-0.022c-0.057-0.016-0.112-0.034-0.163-0.061c-0.023-0.012-0.043-0.027-0.065-0.042
						c-0.049-0.032-0.094-0.069-0.136-0.112c-0.016-0.017-0.032-0.034-0.047-0.053c-0.043-0.052-0.08-0.111-0.113-0.175
						c-0.008-0.017-0.018-0.033-0.026-0.05c-0.037-0.082-0.066-0.172-0.087-0.272c-0.001-0.005-0.003-0.009-0.003-0.013
						c-0.022-0.111-0.037-0.23-0.037-0.361V273.892z"/>
				</g>
				<g id="XMLID_3225_">
					<path id="XMLID_2972_" style="fill:#27DEBF;" d="M100.701,295.645l-0.57-0.329c-0.911-0.526-1.65-1.806-1.65-2.858v-5.127
						c0-1.053,0.739-2.332,1.65-2.858L235.9,206.086c0.911-0.526,2.389-0.526,3.301,0l0.57,0.329c0.912,0.526,1.65,1.806,1.65,2.859
						v5.127c0,1.052-0.739,2.332-1.65,2.858l-135.768,78.386C103.09,296.171,101.613,296.171,100.701,295.645z"/>
					<path id="XMLID_3231_" style="opacity:0.5;" d="M239.77,208.319l-135.769,78.385c-0.911,0.526-1.65,1.806-1.65,2.858l0,5.127
						c0,1.053,0.739,1.479,1.65,0.953l135.768-78.386c0.912-0.526,1.65-1.806,1.65-2.858v-5.127
						C241.421,208.219,240.682,207.793,239.77,208.319z"/>
					<path id="XMLID_3230_" style="opacity:0.4;" d="M239.77,206.413l-0.57-0.329c-0.912-0.526-2.389-0.526-3.301,0L100.131,284.47
						c-0.455,0.263-0.868,0.714-1.166,1.231l3.869,2.232c0,0,0.437-0.801,1.168-1.229l135.769-78.385
						c0.912-0.526,1.65-0.1,1.65,0.953C241.421,208.219,240.682,206.94,239.77,206.413z"/>
					<path id="XMLID_3227_" style="opacity:0.6;" d="M102.348,289.564c0-0.527,0.187-1.11,0.486-1.63l-3.869-2.232
						c-0.124,0.214-0.222,0.441-0.302,0.669c-0.111,0.324-0.179,0.651-0.179,0.96v5.127c0,0.539,0.194,1.135,0.503,1.66
						c0.297,0.502,0.699,0.94,1.144,1.197l0.223,0.129l0.35,0.198c0.079,0.046,0.165,0.085,0.252,0.122
						c0.024,0.01,0.046,0.023,0.07,0.033c0.074,0.03,0.153,0.053,0.23,0.077c0.049,0.015,0.096,0.032,0.146,0.044
						c0.074,0.019,0.151,0.034,0.228,0.048c0.057,0.011,0.115,0.022,0.173,0.03c0.076,0.011,0.154,0.019,0.231,0.025
						c0.059,0.005,0.118,0.008,0.177,0.01c0.081,0.003,0.162,0.004,0.243,0.002c0.05-0.001,0.1-0.005,0.15-0.008
						c0.092-0.006,0.183-0.012,0.274-0.025c0.021-0.003,0.041-0.008,0.062-0.011c0.236-0.036,0.465-0.093,0.676-0.174
						c-0.081,0.024-0.159,0.037-0.235,0.045c-0.008,0.001-0.018,0.004-0.026,0.005c-0.092,0.008-0.179,0.002-0.261-0.013
						c-0.025-0.005-0.048-0.015-0.072-0.022c-0.057-0.016-0.112-0.034-0.163-0.061c-0.023-0.012-0.043-0.027-0.065-0.042
						c-0.049-0.032-0.094-0.069-0.136-0.112c-0.016-0.017-0.032-0.034-0.047-0.053c-0.043-0.052-0.08-0.111-0.113-0.175
						c-0.008-0.017-0.018-0.033-0.026-0.05c-0.037-0.082-0.066-0.172-0.087-0.272c-0.001-0.005-0.003-0.009-0.003-0.013
						c-0.022-0.111-0.037-0.23-0.037-0.361V289.564z"/>
				</g>
			</g>
			<g id="XMLID_683_">
				<g id="XMLID_698_">
					<path id="XMLID_699_" style="fill:#27DEBF;" d="M133.315,320.777v0.658c0,1.053,0.739,2.332,1.65,2.859l4.44,2.564
						c0.911,0.526,2.389,0.526,3.301,0l135.769-78.386c0.911-0.526,1.65-1.806,1.65-2.858v-0.658c0-1.052-0.739-2.332-1.65-2.858
						l-4.44-2.563c-0.911-0.526-2.389-0.526-3.301,0l-135.769,78.385C134.053,318.445,133.315,319.724,133.315,320.777z"/>
					<path id="XMLID_3207_" style="opacity:0.4;" d="M142.706,322.388l135.769-78.386c0.911-0.526,0.911-1.379,0-1.906l-4.44-2.563
						c-0.911-0.526-2.389-0.526-3.301,0l-135.769,78.385c-0.911,0.526-0.911,1.379,0,1.906l4.44,2.564
						C140.316,322.914,141.794,322.914,142.706,322.388z"/>
					<path id="XMLID_3223_" style="opacity:0.55;" d="M278.643,242.2c0.735,0.534,0.68,1.311-0.167,1.804l-135.771,78.385
						c-0.458,0.264-1.055,0.395-1.651,0.395v4.468c0.597,0,1.193-0.132,1.651-0.395l135.771-78.385
						c0.909-0.527,1.651-1.804,1.651-2.858v-0.659C280.127,243.962,279.475,242.782,278.643,242.2z"/>
					<path id="XMLID_3221_" style="opacity:0.6;" d="M139.403,322.388l-4.44-2.567c-0.798-0.465-0.895-1.172-0.298-1.693
						c-0.77,0.597-1.353,1.714-1.353,2.65v0.652c0,0.791,0.416,1.714,1.006,2.345c0.201,0.208,0.416,0.382,0.645,0.513l4.44,2.567
						c0.458,0.264,1.054,0.395,1.651,0.395v-4.468C140.458,322.784,139.861,322.652,139.403,322.388z"/>
				</g>
				<g id="XMLID_697_">
					<path id="XMLID_2948_" style="fill:#27DEBF;" d="M119.768,312.956v0.658c0,1.052,0.739,2.332,1.65,2.858l4.44,2.563
						c0.911,0.526,2.389,0.526,3.301,0l135.768-78.385c0.912-0.526,1.65-1.806,1.65-2.858v-0.658c0-1.053-0.739-2.332-1.65-2.859
						l-4.44-2.563c-0.911-0.526-2.389-0.526-3.301,0l-135.768,78.385C120.507,310.624,119.768,311.904,119.768,312.956z"/>
					<path id="XMLID_3217_" style="opacity:0.4;" d="M129.159,314.567l135.768-78.386c0.912-0.526,0.912-1.38,0-1.906l-4.44-2.563
						c-0.911-0.526-2.389-0.526-3.301,0l-135.768,78.385c-0.911,0.526-0.912,1.379,0,1.906l4.44,2.564
						C126.77,315.093,128.248,315.093,129.159,314.567z"/>
					<path id="XMLID_3219_" style="opacity:0.55;" d="M265.096,234.379c0.735,0.534,0.68,1.311-0.167,1.804l-135.771,78.385
						c-0.458,0.264-1.054,0.395-1.651,0.395v4.468c0.597,0,1.193-0.132,1.651-0.395L264.93,240.65
						c0.909-0.527,1.651-1.804,1.651-2.858v-0.659C266.581,236.141,265.929,234.962,265.096,234.379z"/>
					<path id="XMLID_3214_" style="opacity:0.6;" d="M125.857,314.568l-4.44-2.567c-0.798-0.465-0.895-1.172-0.298-1.693
						c-0.77,0.597-1.353,1.714-1.353,2.65v0.652c0,0.791,0.416,1.714,1.006,2.345c0.201,0.208,0.416,0.382,0.645,0.513l4.44,2.567
						c0.458,0.264,1.054,0.395,1.651,0.395v-4.468C126.911,314.963,126.315,314.831,125.857,314.568z"/>
				</g>
				<g id="XMLID_690_">
					<path id="XMLID_2961_" style="fill:#27DEBF;" d="M106.222,305.135v0.658c0,1.052,0.739,2.332,1.65,2.858l4.44,2.564
						c0.911,0.526,2.389,0.526,3.301,0l135.768-78.385c0.912-0.526,1.65-1.806,1.65-2.859v-0.658c0-1.052-0.739-2.332-1.65-2.858
						l-4.44-2.564c-0.911-0.526-2.389-0.526-3.301,0l-135.769,78.385C106.961,302.803,106.222,304.083,106.222,305.135z"/>
					<path id="XMLID_693_" style="opacity:0.4;" d="M107.872,304.183l4.44,2.564c0.911,0.526,2.389,0.526,3.3,0l135.769-78.386
						c0.911-0.526,0.911-1.379,0-1.906l-4.44-2.564c-0.912-0.526-2.389-0.526-3.301,0l-135.769,78.385
						C106.961,302.803,106.961,303.656,107.872,304.183z"/>
					<path id="XMLID_3226_" style="opacity:0.55;" d="M251.549,226.559c0.735,0.534,0.68,1.311-0.167,1.804l-135.771,78.385
						c-0.458,0.264-1.054,0.395-1.651,0.395v4.468c0.597,0,1.193-0.132,1.651-0.395l135.771-78.385
						c0.909-0.527,1.651-1.804,1.651-2.858v-0.659C253.034,228.321,252.382,227.141,251.549,226.559z"/>
					<path id="XMLID_692_" style="opacity:0.6;" d="M112.31,306.747l-4.44-2.567c-0.798-0.465-0.895-1.172-0.298-1.693
						c-0.77,0.597-1.353,1.714-1.353,2.65v0.652c0,0.791,0.416,1.714,1.006,2.345c0.201,0.208,0.416,0.382,0.645,0.513l4.44,2.567
						c0.458,0.264,1.055,0.395,1.651,0.395v-4.468C113.365,307.143,112.768,307.011,112.31,306.747z"/>
				</g>
			</g>
			<g id="XMLID_626_">
				<path id="XMLID_3136_" d="M118.74,299.186c-0.515,0.297-0.516,0.78-0.002,1.078c0.515,0.298,1.35,0.298,1.867,0
					c0.516-0.298,0.517-0.78,0.002-1.078C120.091,298.888,119.256,298.888,118.74,299.186z"/>
				<path id="XMLID_3013_" d="M132.324,307.071c-0.515,0.298-0.516,0.78-0.001,1.078c0.515,0.298,1.35,0.298,1.867,0
					c0.516-0.297,0.517-0.78,0.002-1.078C133.676,306.773,132.84,306.773,132.324,307.071z"/>
				<path id="XMLID_3011_" d="M145.909,314.956c-0.515,0.298-0.516,0.78-0.002,1.078c0.515,0.298,1.35,0.298,1.867,0
					c0.516-0.298,0.517-0.78,0.002-1.078C147.26,314.658,146.424,314.658,145.909,314.956z"/>
				<path id="XMLID_3008_" d="M242.238,227.925c-0.515,0.298-0.516,0.78-0.001,1.078c0.514,0.298,1.35,0.298,1.867,0
					c0.516-0.298,0.517-0.78,0.002-1.078C243.589,227.627,242.753,227.627,242.238,227.925z"/>
				<path id="XMLID_3006_" d="M255.822,235.809c-0.515,0.298-0.516,0.78-0.002,1.078c0.514,0.298,1.35,0.298,1.867,0
					c0.516-0.298,0.517-0.78,0.002-1.078C257.174,235.512,256.338,235.512,255.822,235.809z"/>
				<path id="XMLID_3004_" d="M269.407,243.694c-0.515,0.298-0.516,0.78-0.002,1.078c0.514,0.298,1.35,0.298,1.866,0
					c0.516-0.298,0.517-0.78,0.002-1.078C270.758,243.397,269.922,243.397,269.407,243.694z"/>
				<path id="XMLID_2557_" d="M181.514,263.693c-0.515,0.298-0.516,0.78-0.001,1.078c0.514,0.298,1.35,0.298,1.867,0
					c0.516-0.298,0.517-0.78,0.002-1.078C182.865,263.396,182.029,263.396,181.514,263.693z"/>
				<path id="XMLID_2555_" d="M195.098,271.578c-0.515,0.298-0.516,0.78-0.002,1.078c0.515,0.298,1.35,0.298,1.867,0
					c0.516-0.298,0.517-0.78,0.002-1.078C196.449,271.281,195.614,271.28,195.098,271.578z"/>
				<path id="XMLID_2505_" d="M208.683,279.463c-0.515,0.298-0.516,0.78-0.002,1.078c0.515,0.298,1.35,0.298,1.867,0
					c0.516-0.297,0.517-0.78,0.002-1.077C210.034,279.165,209.198,279.165,208.683,279.463z"/>
				<path id="XMLID_3190_" d="M109.927,254.996c-0.587,0.339-1.062,1.163-1.062,1.84s0.476,0.952,1.062,0.613
					c0.587-0.339,1.062-1.163,1.062-1.84C110.99,254.932,110.514,254.657,109.927,254.996z"/>
				<path id="XMLID_3188_" d="M109.927,270.638c-0.587,0.339-1.062,1.163-1.062,1.84c0,0.677,0.476,0.952,1.062,0.613
					c0.587-0.339,1.062-1.163,1.062-1.84C110.99,270.574,110.514,270.3,109.927,270.638z"/>
				<path id="XMLID_3147_" d="M109.927,286.281c-0.587,0.339-1.062,1.163-1.062,1.84c0,0.678,0.476,0.952,1.062,0.614
					c0.587-0.339,1.062-1.163,1.062-1.84C110.99,286.217,110.514,285.942,109.927,286.281z"/>
				<path id="XMLID_3143_" d="M233.533,183.766c-0.587,0.339-1.062,1.163-1.062,1.84c0,0.678,0.476,0.952,1.062,0.613
					c0.587-0.339,1.062-1.163,1.062-1.84C234.596,183.702,234.12,183.427,233.533,183.766z"/>
				<path id="XMLID_3141_" d="M233.533,199.408c-0.587,0.339-1.062,1.163-1.062,1.84c0,0.678,0.476,0.952,1.062,0.613
					c0.587-0.339,1.062-1.162,1.062-1.84C234.596,199.344,234.12,199.07,233.533,199.408z"/>
				<path id="XMLID_3139_" d="M233.533,215.051c-0.587,0.339-1.062,1.163-1.062,1.84c0,0.678,0.476,0.952,1.062,0.614
					c0.587-0.339,1.062-1.163,1.062-1.84C234.596,214.987,234.12,214.712,233.533,215.051z"/>
				<path id="XMLID_674_" d="M172.809,219.534c-0.587,0.339-1.062,1.163-1.062,1.84c0,0.677,0.476,0.952,1.062,0.613
					c0.587-0.339,1.062-1.163,1.062-1.84C173.871,219.47,173.396,219.196,172.809,219.534z"/>
				<path id="XMLID_2562_" d="M172.809,235.177c-0.587,0.339-1.062,1.163-1.062,1.84c0,0.677,0.476,0.952,1.062,0.613
					c0.587-0.339,1.062-1.163,1.062-1.84C173.871,235.113,173.396,234.838,172.809,235.177z"/>
				<path id="XMLID_2560_" d="M172.809,250.819c-0.587,0.339-1.062,1.163-1.062,1.84s0.476,0.952,1.062,0.613
					c0.587-0.339,1.062-1.163,1.062-1.84C173.871,250.755,173.396,250.481,172.809,250.819z"/>
			</g>
		</g>
	</g>
	<g id="Character_5_">
		<g>
			<path id="XMLID_802_" style="fill:#FFA8A7;" d="M162.948,205.33c10.279-0.698,13.144,2.422,19.924,7.581
				c4.812,3.661,12.698,9.268,12.698,9.268s5.274-17.153,5.155-19.434c-0.143-2.739-1.352-3.609-2.03-6.466
				c-0.682-2.873-0.696-4.832-1.494-5.987c-0.798-1.155,1.592-1.641,2.694-0.213c1.103,1.428,1.382,3.55,2.027,3.111
				c0.645-0.439,0.755-5.038-0.08-8.282c-0.835-3.244,0.935-4.248,1.698-3.255c0.762,0.993,1.074,1.698,1.074,1.698
				s2.536-1.105,4.382,0.642c1.846,1.746,3.6,4.423,3.985,9.303c0.385,4.88-1.783,8.755-2.278,10.931
				c-0.738,3.245-1.508,21.023-5.383,30.552c-1.77,4.352-5.563,4.301-8.992,2.383c-5.322-2.978-21.926-12.26-21.926-12.26
				C167.839,221.712,159.487,210.119,162.948,205.33z"/>
			<g>
				<path style="fill:#27DEBF;" d="M164.53,205.251c0,0,5.173-1.647,10.523,1.666c5.35,3.313,20.191,14.558,20.191,14.558
					s2.789-7.574,3.201-9.049c0,0,5.613,3.47,11.044,2.243c0,0-0.997,12.912-2.979,18.691c-1.982,5.779-4.101,5.951-8.133,5.045
					c-4.032-0.906-26.517-13.344-26.517-13.344L164.53,205.251z"/>
				<path style="opacity:0.1;" d="M164.53,205.251c0,0,5.173-1.647,10.523,1.666c5.35,3.313,20.191,14.558,20.191,14.558
					s2.789-7.574,3.201-9.049c0,0,5.613,3.47,11.044,2.243c0,0-0.997,12.912-2.979,18.691c-1.982,5.779-4.101,5.951-8.133,5.045
					c-4.032-0.906-26.517-13.344-26.517-13.344L164.53,205.251z"/>
			</g>
		</g>
		<g id="XMLID_796_">
			<g id="XMLID_797_">
				<g id="XMLID_799_">
					<path id="XMLID_805_" style="fill:#FFA8A7;" d="M192.063,339.707c0,0,2.791,10.957,4.67,14.393
						c2.118,3.874,4.179,7.251,7.419,10.864c0.706,0.787,2.307,2.244,2.884,2.88c0.514,0.567,0.607,1.23-0.097,1.928
						c-1.388,1.375-7.368,1.802-10.767-0.652c-3.399-2.455-6.263-6.538-8.299-8.526c-1.019-0.995-1.977-1.946-2.68-2.648
						c-0.674-0.673-0.948-1.646-0.72-2.571c0.065-0.262,0.136-0.57,0.216-0.931c0.715-3.247-3.165-11.444-3.165-11.444
						C184.34,338.958,188.423,339.116,192.063,339.707z"/>
					<g>
						<path style="fill:#263238;" d="M184.285,358.683c0,0-0.143,0.895,0.191,1.629c0.334,0.734,2.458,2.034,3.546,2.544
							c1.087,0.51,1.936,1.315,2.921,2.915c1.352,2.198,3.361,4.545,5.837,5.623c2.476,1.078,6.124,1.751,10.488,0.878
							c4.363-0.873,4.668-3.461,4.668-3.461s0.183-2.432-0.914-2.795C209.923,365.655,184.285,358.683,184.285,358.683z"/>
						<path id="XMLID_804_" style="fill:#455A64;" d="M184.121,351.188c0.059,0.232-0.018,0.868-0.046,1.168
							c-0.114,1.209-0.213,1.963-0.26,3.344c-0.035,1.027,0.103,2.247,0.47,2.983c1.325,1.763,4.383,2.291,6.19,4.698
							c1.807,2.407,3.973,6.128,9.729,7.154c5.757,1.027,10.072-0.88,11.1-2.533c1.028-1.652,0.03-3.172-3.684-5.084
							c-3.942-2.03-8.685-7.563-8.687-7.565c-0.475-0.558-0.899-1.18-1.324-1.776c-0.488-0.684-1.019-1.362-1.278-2.163
							c-0.27-0.835-0.434-1.697-0.467-2.574c-0.003-0.075-0.008-0.156-0.059-0.211c-0.05-0.053-0.129-0.064-0.202-0.071
							c-2.125-0.203-4.312,0.307-6.129,1.428c-0.186,0.115-0.373,0.24-0.495,0.422c-0.101,0.15-0.15,0.329-0.198,0.504
							c-0.125,0.461-0.251,0.922-0.376,1.384c-0.099,0.364-0.235,0.772-0.579,0.925c-0.42,0.187-0.885-0.111-1.247-0.393
							c-0.395-0.308-0.611-0.934-1.007-1.242C185.165,351.265,184.637,351.132,184.121,351.188z"/>
						<path style="fill:#FAFAFA;" d="M196.464,369.239c0,0-0.156-4.013,4.125-6.308c4.281-2.295,6.935-0.921,8.277,0.005
							c1.598,1.104,3.897,3.427,2.562,5.172c-1.442,1.886-3.79,2.815-8.201,2.953C198.817,371.2,196.464,369.239,196.464,369.239z"
							/>
					</g>
					<path id="XMLID_803_" style="fill:#37474F;" d="M133.915,261.335c0,4.821,0.475,20.69,5.45,26.898
						c3.246,4.051,5.796,5.652,13.611,11.034c8.534,5.878,9.656,6.947,11.744,8.43c2.079,1.477,4.103,3.55,4.731,6.828
						c0.73,3.812,1.42,7.584,5.147,15.492c2.931,6.219,6.192,11.917,7.84,15.067c2.481,0.425,8.673-0.766,10.294-2.868
						c-0.897-4.708-6.035-38.091-8.229-43.04c-2.165-4.882-19.589-19.796-19.589-19.796s-1.377-8.978,0.026-14.832L133.915,261.335z
						"/>
				</g>
			</g>
			<g id="XMLID_751_">
				<g id="XMLID_752_">
					<path id="XMLID_755_" style="fill:#FFA8A7;" d="M219.736,325.617c0,0,2.791,10.957,4.67,14.393
						c2.118,3.874,4.179,7.251,7.419,10.864c0.706,0.787,2.307,2.244,2.884,2.88c0.514,0.567,0.607,1.23-0.097,1.928
						c-1.388,1.375-7.368,1.802-10.767-0.652c-3.399-2.455-6.263-6.539-8.299-8.526c-1.019-0.995-1.977-1.946-2.679-2.648
						c-0.674-0.674-0.948-1.646-0.72-2.571c0.065-0.262,0.136-0.57,0.216-0.931c0.715-3.247-3.165-11.444-3.165-11.444
						C212.014,324.869,216.097,325.027,219.736,325.617z"/>
					<g>
						<path style="fill:#263238;" d="M211.959,344.594c0,0-0.144,0.895,0.191,1.629c0.334,0.734,2.458,2.034,3.546,2.544
							c1.087,0.51,1.936,1.315,2.921,2.915c1.352,2.198,3.361,4.545,5.837,5.623c2.476,1.078,6.124,1.751,10.488,0.878
							c4.363-0.873,4.668-3.46,4.668-3.46s0.183-2.432-0.914-2.795C237.597,351.566,211.959,344.594,211.959,344.594z"/>
						<path id="XMLID_754_" style="fill:#455A64;" d="M211.794,337.099c0.059,0.232-0.018,0.868-0.046,1.168
							c-0.114,1.209-0.213,1.963-0.26,3.344c-0.035,1.027,0.103,2.247,0.47,2.983c1.325,1.763,4.383,2.291,6.19,4.698
							c1.807,2.407,3.973,6.128,9.729,7.154c5.757,1.027,10.072-0.88,11.1-2.533s0.03-3.172-3.684-5.084
							c-3.942-2.03-8.685-7.563-8.687-7.565c-0.475-0.558-0.899-1.18-1.324-1.776c-0.488-0.684-1.018-1.362-1.277-2.163
							c-0.27-0.835-0.434-1.697-0.467-2.574c-0.003-0.075-0.008-0.156-0.059-0.211c-0.05-0.053-0.129-0.064-0.202-0.071
							c-2.125-0.203-4.312,0.307-6.128,1.428c-0.186,0.115-0.373,0.24-0.495,0.422c-0.101,0.15-0.15,0.329-0.198,0.504
							c-0.125,0.461-0.251,0.922-0.376,1.384c-0.099,0.364-0.235,0.772-0.579,0.925c-0.42,0.187-0.885-0.111-1.247-0.393
							c-0.395-0.308-0.612-0.934-1.007-1.242C212.839,337.176,212.31,337.043,211.794,337.099z"/>
						<path style="fill:#FAFAFA;" d="M224.137,355.15c0,0-0.156-4.013,4.125-6.308c4.281-2.295,6.935-0.921,8.277,0.005
							c1.598,1.104,3.897,3.427,2.562,5.172c-1.442,1.886-3.79,2.815-8.201,2.953C226.49,357.111,224.137,355.15,224.137,355.15z"/>
					</g>
					<path id="XMLID_753_" style="fill:#37474F;" d="M135.984,264.64c-1.045,5.866,26.501,17.686,26.501,17.686
						s3.769,1.417,11.461,5.17c11.339,5.533,15.998,8.524,17.891,9.695c2.168,1.342,3.873,2.084,4.501,5.362
						c0.73,3.812,0.403,5.508,5.239,14.508c3.254,6.056,6.885,10.783,8.533,13.933c2.481,0.425,8.673-0.766,10.293-2.868
						c-0.896-4.708-6.034-38.091-8.229-43.04c-2.165-4.882-35.918-24.301-35.918-24.301L135.984,264.64z"/>
				</g>
			</g>
			<path style="fill:#263238;" d="M174.145,287.593l-6.765-9.142c0,0,7.328-4.424,8.87-12.295c0,0,0.454,6.996-5.888,12.389
				L174.145,287.593z"/>
		</g>
		<g>
			<path id="XMLID_18849_" style="fill:#F5F5F5;" d="M149.039,205.114c-8.595,1.588-14.326,3.438-15.948,5.011
				c-3.656,7.487,1.777,37.624,1.777,37.624l-1.164,6.697l-2.059,11.712c9.284,7.848,39.545,5.624,44.612-5.371
				c0,0-0.05-34.658-0.684-40.97c-0.732-7.288-4.697-14.918-14.428-15.483L149.039,205.114z"/>
			<path style="fill:#EBEBEB;" d="M142.779,263.034c-2.487-3.821-2.924-13.551-2.924-13.551s0.267-25.302-0.733-31.338l-7.052,9.478
				c0.706,9.575,2.798,20.125,2.798,20.125l-1.164,6.697l-1.373,7.808l-0.686,3.904c0.27,0.228,0.562,0.446,0.866,0.658
				c0.098,0.068,0.204,0.132,0.306,0.199c0.214,0.14,0.433,0.279,0.663,0.411c0.126,0.073,0.257,0.143,0.388,0.214
				c0.222,0.12,0.449,0.237,0.683,0.349c0.14,0.068,0.281,0.134,0.425,0.2c0.246,0.111,0.5,0.218,0.758,0.322
				c0.14,0.057,0.277,0.115,0.421,0.169c0.313,0.119,0.636,0.231,0.964,0.34c0.095,0.032,0.186,0.066,0.283,0.097
				c0.427,0.137,0.867,0.265,1.316,0.385c0.121,0.033,0.248,0.061,0.371,0.092c0.334,0.085,0.67,0.167,1.015,0.243
				c0.173,0.038,0.349,0.073,0.525,0.109c0.306,0.063,0.614,0.123,0.926,0.179c0.189,0.034,0.38,0.066,0.571,0.097
				c0.313,0.051,0.629,0.098,0.948,0.143c0.189,0.026,0.379,0.054,0.57,0.078c0.35,0.044,0.704,0.082,1.059,0.119
				c0.163,0.017,0.325,0.036,0.489,0.051c0.517,0.047,1.038,0.088,1.565,0.119c0.081,0.005,0.163,0.007,0.244,0.011
				c0.45,0.025,0.902,0.044,1.357,0.057c0.193,0.005,0.388,0.007,0.582,0.01c0.347,0.006,0.695,0.01,1.044,0.01
				c0.218,0,0.436-0.003,0.654-0.006c0.332-0.004,0.664-0.012,0.996-0.022c0.221-0.007,0.442-0.014,0.663-0.024
				c0.342-0.015,0.683-0.034,1.025-0.055c0.209-0.013,0.417-0.024,0.626-0.039c0.41-0.03,0.819-0.066,1.227-0.105
				c0.136-0.013,0.272-0.022,0.408-0.036c0.533-0.055,1.063-0.117,1.592-0.187c0.186-0.025,0.37-0.054,0.555-0.08
				c0.351-0.05,0.701-0.102,1.049-0.158c0.218-0.036,0.435-0.075,0.651-0.113c0.313-0.056,0.626-0.113,0.936-0.174
				c0.223-0.044,0.446-0.089,0.667-0.136c0.303-0.064,0.603-0.132,0.902-0.201c0.215-0.05,0.432-0.099,0.645-0.152
				c0.319-0.079,0.633-0.163,0.947-0.249c0.184-0.05,0.369-0.097,0.551-0.149c0.476-0.137,0.946-0.28,1.406-0.431
				c0.138-0.046,0.271-0.096,0.408-0.143c0.331-0.113,0.66-0.228,0.981-0.349c0.185-0.07,0.364-0.143,0.545-0.215
				c0.266-0.106,0.53-0.213,0.788-0.324c0.186-0.08,0.369-0.163,0.552-0.246c0.245-0.112,0.485-0.226,0.722-0.343
				c0.176-0.087,0.352-0.175,0.524-0.264c0.239-0.125,0.471-0.255,0.7-0.386c0.153-0.087,0.311-0.173,0.459-0.263
				c0.283-0.171,0.554-0.348,0.82-0.527c0.083-0.056,0.172-0.108,0.253-0.165l0,0C158.584,269.783,145.265,266.854,142.779,263.034z
				"/>
		</g>
		<g id="XMLID_778_">
			<path id="XMLID_795_" style="fill:#263238;" d="M147.702,179.681c0,7.13,5.55,12.911,12.396,12.911
				c6.846,0,10.897-5.939,12.396-12.911c2.74-12.75-5.55-12.911-12.396-12.911C153.252,166.771,147.702,172.551,147.702,179.681z"/>
			<g id="XMLID_786_">
				<path id="XMLID_794_" style="fill:#263238;" d="M141.378,184.904c0,0,1.901,9.303,2.663,10.832
					c0.763,1.529,2.338,1.963,2.338,1.963l-0.133-6.545L141.378,184.904z"/>
				<path id="XMLID_793_" style="fill:#263238;" d="M143.764,171.576c0,0-1.363-0.341-2.811,1.921
					c-1.241,1.94-1.523,6.297,0.425,11.407l3.581,0.428L143.764,171.576z"/>
				<path id="XMLID_791_" style="fill:#263238;" d="M142.446,173.46l-4.391,0.082c-0.108-1.26,0.788-2.3,2.001-2.322
					C141.268,171.197,142.339,172.2,142.446,173.46z"/>
				<path id="XMLID_790_" style="fill:#263238;" d="M141.908,172.419l-3.253-3.129c0.803-0.931,2.182-0.985,3.081-0.121
					C142.634,170.034,142.711,171.489,141.908,172.419z"/>
				<path id="XMLID_789_" style="fill:#FFA8A7;" d="M146.033,185.336c-0.718,0.447-1.743-0.99-2.628-1.955
					c-0.885-0.965-3.666-1.876-5.109,1.288c-1.469,3.226,1.015,6.293,3.082,7.32c3.695,1.837,4.868-0.834,4.868-0.834l0.299,14.736
					c1.843,5.098,15.785,6.087,12.761-0.39l-0.011-4.485c0,0,3.554,0.562,5.288,0.283c2.885-0.464,4.699-2.835,5.574-6.087
					c1.405-5.223,1.939-9.441,0.747-19.714c-1.307-11.26-13.881-11.377-20.671-6.926
					C143.444,173.024,146.033,185.336,146.033,185.336z"/>
				<path id="XMLID_788_" style="fill:#263238;" d="M161.707,173.739c-3.004-0.3-5.973-0.911-8.984-1.133
					c-0.652-0.048-1.318-0.076-1.948,0.094c-2.306,0.623-2.008,3.304-2.375,5.177c-0.631,3.225-1.154,8.692-2.368,8.717
					c-0.361,0.007-1.734-2.366-2.628-3.213c-0.579-0.549-0.677-1.732-0.802-2.464c-0.229-1.336-0.353-2.692-0.455-4.043
					c-0.087-1.143-0.201-2.308-0.197-3.455c0.005-1.288-0.02-2.598,0.3-3.856c0.291-1.142,0.825-1.997,1.606-2.887
					c0.075-0.086,0.152-0.171,0.23-0.254c1.481-1.597,3.371-2.795,5.377-3.622c2.879-1.187,5.999-1.66,9.097-1.977
					c3.098-0.317,6.22-0.49,9.271-1.117c0.178-0.037,0.367-0.074,0.537-0.009c0.265,0.102,0.382,0.41,0.435,0.689
					c0.269,1.414-0.367,2.96-1.554,3.775c2.076,0.165,4.459-0.917,6.46-1.458c0.337-0.091,0.719-0.177,1.018,0.003
					c0.207,0.124,0.328,0.354,0.401,0.583c0.169,0.532,0.132,1.106,0.056,1.659c-0.223,1.635-0.78,3.25-1.788,4.557
					c-1.451,1.881-3.838,3.576-6.192,4.048C165.344,173.924,163.607,173.929,161.707,173.739z"/>
				<path id="XMLID_787_" style="fill:#F28F8F;" d="M159.296,201.016c0,0-6.439-1.351-8.69-2.597
					c-1.507-0.834-2.748-2.28-3.112-3.207c0,0,0.422,1.99,1.768,3.782c1.646,2.192,10.034,3.806,10.034,3.806L159.296,201.016z"/>
			</g>
			<g id="XMLID_779_">
				<path id="XMLID_785_" style="fill:#263238;" d="M157.749,183.659c0,0.771-0.578,1.395-1.29,1.393
					c-0.713-0.002-1.29-0.629-1.29-1.4c0-0.771,0.578-1.395,1.29-1.393C157.171,182.261,157.749,182.888,157.749,183.659z"/>
				<path id="XMLID_784_" style="fill:#263238;" d="M155.676,178.095l-2.76,1.587c-0.407-0.826-0.119-1.851,0.643-2.289
					C154.322,176.954,155.27,177.268,155.676,178.095z"/>
				<path id="XMLID_783_" style="fill:#F28F8F;" d="M158.713,192.943l2.946,1.151c-0.292,0.879-1.187,1.335-2.001,1.017
					C158.844,194.793,158.421,193.822,158.713,192.943z"/>
				<path id="XMLID_782_" style="fill:#263238;" d="M169.586,179.277l-2.517-2.019c0.514-0.751,1.493-0.907,2.188-0.35
					C169.952,177.466,170.099,178.527,169.586,179.277z"/>
				<path id="XMLID_781_" style="fill:#263238;" d="M168.48,183.276c0,0.771-0.578,1.395-1.291,1.393
					c-0.712-0.002-1.29-0.629-1.29-1.4c0-0.771,0.578-1.395,1.29-1.393C167.903,181.878,168.48,182.505,168.48,183.276z"/>
				<polygon id="XMLID_780_" style="fill:#F28F8F;" points="161.575,182.197 161.725,190.347 166.35,189.286 				"/>
			</g>
		</g>
		<g>
			<path style="fill:#FFA8A7;" d="M137.013,208.111c-7.868,1.361-11.262,3.537-13.254,12.237
				c-1.128,4.929-5.921,23.962-6.381,30.077c-0.333,4.433,8.879,26.603,14.632,34.929c5.087,7.362,7.449,9.199,11.304,10.029
				c3.854,0.83,10.107-2.596,8.137-5.251c-1.97-2.655-7.109-6.371-7.195-6.612c-0.086-0.241,3.083,1.222,5.053,1.433
				c1.97,0.211,2.925-0.421,3.047-1.433c0.122-1.011-0.82-0.84-2.704-1.525c-1.884-0.685-4.711-3.5-6.681-4.362
				c-1.97-0.862-4.022-2.058-5.392-4.655c-1.37-2.597-6.398-23.494-6.398-23.494l5.61-19.604
				C136.791,229.88,141.95,215.899,137.013,208.111z"/>
			<g>
				<path style="fill:#27DEBF;" d="M137.853,207.821c0,0-8.902-0.243-12.088,5.031c-3.186,5.274-9.63,36.111-9.229,38.403
					c0.401,2.292,7.78,19.564,7.78,19.564s4.733-4.208,11.112-4.664l-3.782-16.672l7.305-24.974
					C138.949,224.51,141.591,214.326,137.853,207.821z"/>
				<path style="opacity:0.1;" d="M137.853,207.821c0,0-8.902-0.243-12.088,5.031c-3.186,5.274-9.63,36.111-9.229,38.403
					c0.401,2.292,7.78,19.564,7.78,19.564s4.733-4.208,11.112-4.664l-3.782-16.672l7.305-24.974
					C138.949,224.51,141.591,214.326,137.853,207.821z"/>
			</g>
		</g>
	</g>
</g>
</svg>
